%TF.GenerationSoftware,KiCad,Pcbnew,7.0.10-7.0.10~ubuntu22.04.1*%
%TF.CreationDate,2024-01-16T21:14:25+01:00*%
%TF.ProjectId,teszt5,7465737a-7435-42e6-9b69-6361645f7063,rev?*%
%TF.SameCoordinates,PX5f5e100PY5f5e100*%
%TF.FileFunction,Copper,L1,Top*%
%TF.FilePolarity,Positive*%
%FSLAX46Y46*%
G04 Gerber Fmt 4.6, Leading zero omitted, Abs format (unit mm)*
G04 Created by KiCad (PCBNEW 7.0.10-7.0.10~ubuntu22.04.1) date 2024-01-16 21:14:25*
%MOMM*%
%LPD*%
G01*
G04 APERTURE LIST*
G04 Aperture macros list*
%AMRoundRect*
0 Rectangle with rounded corners*
0 $1 Rounding radius*
0 $2 $3 $4 $5 $6 $7 $8 $9 X,Y pos of 4 corners*
0 Add a 4 corners polygon primitive as box body*
4,1,4,$2,$3,$4,$5,$6,$7,$8,$9,$2,$3,0*
0 Add four circle primitives for the rounded corners*
1,1,$1+$1,$2,$3*
1,1,$1+$1,$4,$5*
1,1,$1+$1,$6,$7*
1,1,$1+$1,$8,$9*
0 Add four rect primitives between the rounded corners*
20,1,$1+$1,$2,$3,$4,$5,0*
20,1,$1+$1,$4,$5,$6,$7,0*
20,1,$1+$1,$6,$7,$8,$9,0*
20,1,$1+$1,$8,$9,$2,$3,0*%
G04 Aperture macros list end*
%TA.AperFunction,SMDPad,CuDef*%
%ADD10R,1.000000X1.000000*%
%TD*%
%TA.AperFunction,SMDPad,CuDef*%
%ADD11RoundRect,0.250000X-0.625000X0.400000X-0.625000X-0.400000X0.625000X-0.400000X0.625000X0.400000X0*%
%TD*%
%TA.AperFunction,SMDPad,CuDef*%
%ADD12R,2.510000X1.000000*%
%TD*%
%TA.AperFunction,SMDPad,CuDef*%
%ADD13RoundRect,0.250000X-0.650000X0.412500X-0.650000X-0.412500X0.650000X-0.412500X0.650000X0.412500X0*%
%TD*%
%TA.AperFunction,Conductor*%
%ADD14C,1.000000*%
%TD*%
%TA.AperFunction,Conductor*%
%ADD15C,0.600000*%
%TD*%
G04 APERTURE END LIST*
D10*
%TO.P,TP4,1,1*%
%TO.N,gnd*%
X1750000Y5975000D03*
%TD*%
%TO.P,TP2,1,1*%
%TO.N,Net-(J1-Pin_2)*%
X1750000Y11050000D03*
%TD*%
D11*
%TO.P,R2,2*%
%TO.N,gnd*%
X10175000Y3400000D03*
%TO.P,R2,1*%
%TO.N,Net-(J1-Pin_2)*%
X10175000Y6500000D03*
%TD*%
%TO.P,R1,1*%
%TO.N,vcc*%
X10175000Y11625000D03*
%TO.P,R1,2*%
%TO.N,Net-(J1-Pin_2)*%
X10175000Y8525000D03*
%TD*%
D12*
%TO.P,J1,1,Pin_1*%
%TO.N,vcc*%
X2495000Y13580000D03*
%TO.P,J1,2,Pin_2*%
%TO.N,Net-(J1-Pin_2)*%
X5805000Y11040000D03*
%TO.P,J1,3,Pin_3*%
X2495000Y8500000D03*
%TO.P,J1,4,Pin_4*%
%TO.N,gnd*%
X5805000Y5960000D03*
%TO.P,J1,5,Pin_5*%
X2495000Y3420000D03*
%TD*%
D13*
%TO.P,C1,1*%
%TO.N,Net-(J1-Pin_2)*%
X14400000Y6512500D03*
%TO.P,C1,2*%
%TO.N,gnd*%
X14400000Y3387500D03*
%TD*%
D14*
%TO.N,gnd*%
X5805000Y5960000D02*
X1765000Y5960000D01*
X1765000Y5960000D02*
X1750000Y5975000D01*
D15*
%TO.N,Net-(J1-Pin_2)*%
X1750000Y11050000D02*
X5795000Y11050000D01*
X5795000Y11050000D02*
X5805000Y11040000D01*
D14*
%TO.N,gnd*%
X2495000Y3420000D02*
X5800000Y3420000D01*
X5800000Y3420000D02*
X10155000Y3420000D01*
X5805000Y3425000D02*
X5800000Y3420000D01*
X5805000Y5960000D02*
X5805000Y3425000D01*
X10155000Y3420000D02*
X10175000Y3400000D01*
D15*
%TO.N,Net-(J1-Pin_2)*%
X10175000Y6500000D02*
X10175000Y8525000D01*
X10175000Y8525000D02*
X5800000Y8525000D01*
X5800000Y8525000D02*
X2520000Y8525000D01*
X5805000Y11040000D02*
X5805000Y8530000D01*
X5805000Y8530000D02*
X5800000Y8525000D01*
X2520000Y8525000D02*
X2495000Y8500000D01*
X10175000Y6500000D02*
X14387500Y6500000D01*
X14387500Y6500000D02*
X14400000Y6512500D01*
D14*
%TO.N,gnd*%
X14400000Y3387500D02*
X14387500Y3400000D01*
X14387500Y3400000D02*
X10175000Y3400000D01*
%TO.N,vcc*%
X10175000Y11650000D02*
X10175000Y12600000D01*
X10175000Y12600000D02*
X9195000Y13580000D01*
X9195000Y13580000D02*
X2495000Y13580000D01*
D15*
%TO.N,Net-(J1-Pin_2)*%
X5725000Y11120000D02*
X5805000Y11040000D01*
X5805000Y11040000D02*
X5835000Y11070000D01*
%TD*%
M02*
